<svg width="66" height="66" viewBox="0 0 66 66" fill="none" xmlns="http://www.w3.org/2000/svg">
<path d="M31.9012 49.5252C40.2093 49.5252 44.3645 49.5252 46.9444 46.855C49.5243 44.1847 49.5265 39.8886 49.5265 31.294V27.943C49.5265 22.9 49.5265 20.3795 48.3809 18.2909C47.2396 16.2001 45.1488 14.9047 40.9694 12.3094L36.5631 9.57522C32.1435 6.83228 29.936 5.46191 27.4949 5.46191C25.0537 5.46191 22.8462 6.83228 18.4266 9.57522L14.0203 12.3094C9.84089 14.9047 7.75009 16.2001 6.60664 18.2909C5.90604 19.5688 5.63725 21.0074 5.5293 23.0872" stroke="black" stroke-width="2.55385" stroke-linecap="round"/>
<path d="M25.2914 49.5255C25.2914 44.2667 23.2023 39.2232 19.4837 35.5047C15.7652 31.7861 10.7217 29.697 5.46289 29.697" stroke="black" stroke-width="2.55385" stroke-linecap="round"/>
<path d="M18.6819 49.5254C18.6819 46.0195 17.2892 42.6572 14.8101 40.1781C12.3311 37.6991 8.96879 36.3064 5.46289 36.3064M12.0724 49.5254C12.0724 47.7724 11.376 46.0913 10.1365 44.8518C8.89699 43.6122 7.21584 42.9159 5.46289 42.9159" stroke="black" stroke-width="2.55385" stroke-linecap="round"/>
</svg>
