<svg width="71" height="71" viewBox="0 0 71 71" fill="none" xmlns="http://www.w3.org/2000/svg">
<path d="M35.5 31.0625C32.2458 31.0625 29.2135 30.459 26.4031 29.252C23.5927 28.045 21.1028 26.3804 18.9333 24.2583L24.2583 21.0781C25.4417 22.0642 26.7236 22.8778 28.1042 23.5188C29.4847 24.1597 30.9639 24.6035 32.5417 24.85V9.17084L35.5 7.39584L38.4583 9.17084V24.85C40.0361 24.6035 41.5153 24.1597 42.8958 23.5188C44.2764 22.8778 45.5583 22.0642 46.7417 21.0781L52.0667 24.2583C49.8972 26.3785 47.4073 28.043 44.5969 29.252C41.7865 30.461 38.7542 31.0645 35.5 31.0625ZM31.876 58.7969L26.4031 55.9125C26.5017 55.4688 26.5639 55.025 26.5895 54.5813C26.6151 54.1375 26.627 53.6938 26.625 53.25C26.625 52.116 26.5264 50.9948 26.3292 49.8864C26.1319 48.778 25.8361 47.7298 25.4417 46.7417L11.9073 54.8771L8.875 53.25V49.774L22.3354 41.7125C21.3493 40.5785 20.2153 39.5677 18.9333 38.6802C17.6514 37.7927 16.2708 37.0778 14.7917 36.5354V30.3229C19.9194 31.6542 24.1597 34.4281 27.5125 38.6447C30.8653 42.8613 32.5417 47.7298 32.5417 53.25C32.5417 54.2361 32.4924 55.1857 32.3937 56.0989C32.2951 57.012 32.1226 57.9114 31.876 58.7969ZM39.124 58.7969C38.8774 57.9094 38.7049 57.0091 38.6062 56.0959C38.5076 55.1828 38.4583 54.2341 38.4583 53.25C38.4583 47.7278 40.1347 42.8594 43.4875 38.6447C46.8403 34.4301 51.0806 31.6561 56.2083 30.3229V36.5354C54.7292 37.0778 53.3486 37.7927 52.0667 38.6802C50.7847 39.5677 49.6507 40.5785 48.6646 41.7125L62.125 49.774V53.25L59.0927 54.8771L45.5583 46.7417C45.1639 47.7278 44.8681 48.776 44.6708 49.8864C44.4736 50.9967 44.375 52.1179 44.375 53.25C44.375 53.6938 44.3878 54.1375 44.4135 54.5813C44.4391 55.025 44.5002 55.4688 44.5969 55.9125L39.124 58.7969Z" fill="black"/>
</svg>
